<?xml version="1.0" standalone="no"?><!DOCTYPE svg PUBLIC "-//W3C//DTD SVG 1.1//EN" "http://www.w3.org/Graphics/SVG/1.1/DTD/svg11.dtd"><svg t="1614660842380" class="icon" viewBox="0 0 1024 1024" version="1.1" xmlns="http://www.w3.org/2000/svg" p-id="3830" xmlns:xlink="http://www.w3.org/1999/xlink" width="200" height="200"><defs><style type="text/css"></style></defs><path d="M928 832h-32V448a64 64 0 0 0-64-64h-96V256a32 32 0 0 0-64 0v128H544V256a32 32 0 0 0-64 0v128H352V256a32 32 0 0 0-64 0v128h-96a64 64 0 0 0-64 64v384H96a32 32 0 0 0 0 64h832a32 32 0 0 0 0-64zM192 576h640v256H192z m96-128h544v64H192v-64z" p-id="3831"></path><path d="M320 160m-32 0a32 32 0 1 0 64 0 32 32 0 1 0-64 0Z" p-id="3832"></path><path d="M512 160m-32 0a32 32 0 1 0 64 0 32 32 0 1 0-64 0Z" p-id="3833"></path><path d="M704 160m-32 0a32 32 0 1 0 64 0 32 32 0 1 0-64 0Z" p-id="3834"></path></svg>