<?xml version="1.0" standalone="no"?><!DOCTYPE svg PUBLIC "-//W3C//DTD SVG 1.1//EN" "http://www.w3.org/Graphics/SVG/1.1/DTD/svg11.dtd"><svg t="1612690418406" class="icon" viewBox="0 0 1024 1024" version="1.1" xmlns="http://www.w3.org/2000/svg" p-id="8715" xmlns:xlink="http://www.w3.org/1999/xlink" width="200" height="200"><defs><style type="text/css"></style></defs><path d="M946.238061 394.705455a72.797091 72.797091 0 0 0 72.797091-72.766061V260.778667a72.797091 72.797091 0 0 0-44.311273-66.901334L538.251636 6.857697a72.704 72.704 0 0 0-57.250909 0L44.311273 193.784242A72.73503 72.73503 0 0 0 0 260.685576v61.129697a72.797091 72.797091 0 0 0 72.952242 72.921212 31.030303 31.030303 0 0 1 31.030303 30.999273v380.95903a31.030303 31.030303 0 0 1-31.030303 31.030303 72.797091 72.797091 0 0 0-72.76606 72.797091v36.367515a72.797091 72.797091 0 0 0 72.76606 72.952242h873.285819a72.797091 72.797091 0 0 0 72.797091-72.76606v-36.553697a72.797091 72.797091 0 0 0-72.797091-72.766061 31.030303 31.030303 0 0 1-30.999273-31.030303V425.766788a31.030303 31.030303 0 0 1 31.030303-30.999273v-0.03103z m-171.318303 443.205818h-62.681213a31.030303 31.030303 0 0 1-30.968242-30.999273v-223.728485a54.582303 54.582303 0 0 0-109.164606 0v223.697455a31.030303 31.030303 0 0 1-31.030303 30.999272h-62.805333a31.030303 31.030303 0 0 1-30.999273-31.030303v-223.635394a54.582303 54.582303 0 0 0-109.133576 0v223.666425a31.030303 31.030303 0 0 1-31.030303 30.999272H244.301576a31.030303 31.030303 0 0 1-31.030303-31.030303V425.95297a31.030303 31.030303 0 0 1 31.030303-31.030303h530.618182a31.030303 31.030303 0 0 1 31.030303 31.030303v380.95903a31.030303 31.030303 0 0 1-31.030303 30.999273v0.03103z" p-id="8716"></path></svg>