<?xml version="1.0" standalone="no"?><!DOCTYPE svg PUBLIC "-//W3C//DTD SVG 1.1//EN" "http://www.w3.org/Graphics/SVG/1.1/DTD/svg11.dtd"><svg t="1612693256639" class="icon" viewBox="0 0 1024 1024" version="1.1" xmlns="http://www.w3.org/2000/svg" p-id="1290" xmlns:xlink="http://www.w3.org/1999/xlink" width="200" height="200"><defs><style type="text/css"></style></defs><path d="M810.666667 81.493333H213.333333a117.546667 117.546667 0 0 0-117.333333 117.333334v626.346666c0 64.64 52.693333 117.333333 117.333333 117.333334h597.333334c64.64 0 117.333333-52.693333 117.333333-117.333334V198.826667c0-64.64-52.693333-117.333333-117.333333-117.333334zM160 198.826667c0-29.226667 23.893333-53.333333 53.333333-53.333334h597.333334c29.44 0 53.333333 24.106667 53.333333 53.333334v341.333333a53.333333 53.333333 0 0 1-53.333333 53.333333h-64.213334l-7.466666-20.48 13.44-4.906666a74.922667 74.922667 0 0 0 44.586666-95.786667l-86.4-236.16A73.386667 73.386667 0 0 0 672 194.133333c-18.133333-8.533333-38.4-9.386667-57.173333-2.56l-292.053334 106.88c-38.613333 14.08-58.453333 56.96-44.373333 95.786667l3.626667 10.026667-16.64 6.186666c-18.56 6.826667-33.706667 20.48-42.026667 38.613334-8.32 18.133333-9.173333 38.4-2.346667 57.173333l32 87.253333H213.333333a53.333333 53.333333 0 0 1-53.333333-53.333333v-341.333333z m412.8 270.933333a32.042667 32.042667 0 0 0-40.96-18.986667l-145.28 53.12-60.16 21.973334-26.453333 9.6-18.773334-51.2a10.090667 10.090667 0 0 1 0.213334-8.106667c0.64-1.493333 2.346667-4.266667 5.973333-5.546667l16.64-6.186666 60.16-21.973334L582.613333 362.666667a11.84 11.84 0 0 1 8.32 0.213333c1.493333 0.853333 4.053333 2.56 5.333334 6.186667l60.586666 165.76 21.333334 58.666666H327.893333l20.48-7.466666 60.16-21.973334 145.28-53.12a32 32 0 0 0 18.986667-41.173333zM344.746667 358.4l292.053333-106.666667c1.28-0.426667 2.56-0.64 3.626667-0.64 2.133333 0 3.626667 0.64 4.48 1.066667 1.493333 0.64 4.266667 2.346667 5.546666 5.973333l86.4 236.16c1.92 5.546667-0.853333 11.733333-6.4 13.653334l-13.44 4.906666-60.586666-165.76a74.432 74.432 0 0 0-95.786667-44.586666l-218.453333 79.786666-3.626667-10.026666c-2.133333-5.546667 0.64-11.733333 6.186667-13.866667zM864 825.173333c0 29.226667-23.893333 53.333333-53.333333 53.333334H213.333333c-29.44 0-53.333333-24.106667-53.333333-53.333334v-180.693333c16 8.32 34.133333 13.013333 53.333333 13.013333h597.333334c19.2 0 37.333333-4.693333 53.333333-13.013333v180.693333z" p-id="1291"></path></svg>