<svg t="1634095990951" class="icon" viewBox="0 0 1024 1024" version="1.1" xmlns="http://www.w3.org/2000/svg" p-id="2575" width="200" height="200"><path d="M838.2 799.9c-17.5 0-31.8 14.3-31.8 31.8v63.1h-640V439.9h286.3c17.5 0 31.8-14.3 31.8-31.8s-14.3-31.8-31.8-31.8H336v-18.2c6-123.5 4-220.1 123.4-229.1h47.3c56.2 0 119.2 11.7 123.2 99.5 0.7 15.7 3 62.9 3 62.9h0.1c1 16.6 14.9 29.8 31.7 29.8 17.5 0 31.8-14.2 31.8-31.8 0-0.8 0-1.6-0.1-2.4 0 0-2.3-41.3-3-55C687 98.2 581.5 65 506.6 65h-47.3c-166.8 14.5-188.6 136.7-187 292.8V376H134.5c-17.5 0-31.8 14.3-31.8 31.8v520.5c0 17.5 14.3 31.8 31.8 31.8 3.8 0 7.5-0.7 11-2h681.7c3.5 1.3 7 2 11 2 17.5 0 31.8-14.3 31.8-31.8v-96.8c-0.1-17.3-14.4-31.6-31.8-31.6z" fill="#707070" p-id="2576"></path><path d="M693.8 350.4C567 350.4 464.1 453.2 464.1 580s102.8 229.7 229.7 229.7c126.7-0.4 229.3-103 229.7-229.7-0.1-126.8-102.9-229.6-229.7-229.6z m64.4 385c-62.8 26-135.1 11.7-183.2-36.4-48.1-48.1-62.5-120.3-36.5-183.1s87.3-103.8 155.3-103.8v-0.1c92.7 0.3 167.7 75.4 168.1 168.1 0 67.9-40.9 129.3-103.7 155.3z" fill="#707070" p-id="2577"></path><path d="M788.3 523.5c0 11.4-1.6 21.3-4.9 29.6-3.2 8.3-8.9 16.8-17.1 25.6-3.7 3.9-10.2 9.4-19.6 16.4-9.4 7-15.8 12.7-19.3 17.2-2.7 3.4-4.9 7.8-6.6 13.2-1.7 5.3-2.7 8.3-3 8.8-2 4.6-5 8-8.8 10.4-3.8 2.4-8.4 3.5-13.7 3.5-8.6 0-15.3-2.2-20-6.7-4.7-4.4-7.1-10.7-7.1-18.7 0-7 1.8-14.1 5.3-21.4 3.6-7.2 8.6-13.9 15.1-20 3.1-2.9 7.7-6.9 13.9-12 18.3-14.9 27.5-29.1 27.5-42.7 0-11.7-3.3-21-9.9-27.9-6.6-6.9-15.6-10.4-26.9-10.4-8.4 0-15.6 1.7-21.6 5-6 3.3-10.9 8.3-14.7 15.1-1 1.7-2.4 4.3-4.2 7.8-7.2 14.4-16.9 21.6-29 21.6-7.5 0-13.3-2.3-17.5-6.8-4.2-4.5-6.3-10.8-6.3-18.8 0-7.8 2-15.7 6.1-23.9s9.9-15.8 17.4-22.8c9-8.5 19.1-14.8 30.3-18.9 11.2-4.1 24-6.1 38.3-6.1 29.4 0 52.7 7.5 70.1 22.6 17.5 14.9 26.2 35 26.2 60.3zM662.6 701.3c0-8.6 3-16 9-22.1 6-6.1 13.2-9.2 21.7-9.2 8.9 0 16.3 3 22.3 9.1 6 6 9 13.4 9 22.2 0 8.5-3.1 15.8-9.2 21.7-6.1 6-13.5 9-22.1 9-8.4 0-15.6-3-21.6-9.1-6.1-6-9.1-13.2-9.1-21.6z" fill="#707070" p-id="2578"></path></svg>