<?xml version="1.0" standalone="no"?><!DOCTYPE svg PUBLIC "-//W3C//DTD SVG 1.1//EN" "http://www.w3.org/Graphics/SVG/1.1/DTD/svg11.dtd"><svg t="1634033143862" class="icon" viewBox="0 0 1024 1024" version="1.1" xmlns="http://www.w3.org/2000/svg" p-id="1826" xmlns:xlink="http://www.w3.org/1999/xlink" width="200" height="200"><defs><style type="text/css"></style></defs><path d="M651.377778 298.666667 853.333333 298.666667 853.333333 341.333333l-201.955556 0L651.377778 298.666667 651.377778 298.666667zM651.377778 298.666667" p-id="1827"></path><path d="M651.377778 449.422222 853.333333 449.422222l0 45.511111-201.955556 0L651.377778 449.422222 651.377778 449.422222zM651.377778 449.422222" p-id="1828"></path><path d="M702.577778 807.822222 702.577778 807.822222l-548.977778 0c-19.911111 0-36.977778-17.066667-36.977778-36.977778L116.622222 253.155556c0-19.911111 17.066667-36.977778 36.977778-36.977778l716.8 0c19.911111 0 36.977778 17.066667 36.977778 36.977778l0 355.555556c17.066667 0 42.666667 5.688889 56.888889 11.377778L964.266667 236.088889c0-42.666667-34.133333-76.8-76.8-76.8L133.688889 159.288889C91.022222 159.288889 56.888889 193.422222 56.888889 236.088889l0 554.666667c0 42.666667 34.133333 76.8 76.8 76.8l585.955556 0C705.422222 847.644444 702.577778 824.888889 702.577778 807.822222L702.577778 807.822222zM702.577778 807.822222" p-id="1829"></path><path d="M853.333333 605.866667l0-8.533333-201.955556 0 0 45.511111 119.466667 0C796.444444 622.933333 822.044444 614.4 853.333333 605.866667L853.333333 605.866667zM853.333333 605.866667" p-id="1830"></path><path d="M358.4 551.822222c68.266667 0 125.155556-56.888889 125.155556-125.155556 0-68.266667-56.888889-125.155556-125.155556-125.155556-68.266667 0-125.155556 56.888889-125.155556 125.155556C233.244444 494.933333 290.133333 551.822222 358.4 551.822222L358.4 551.822222zM358.4 347.022222c42.666667 0 79.644444 36.977778 79.644444 79.644444 0 42.666667-36.977778 79.644444-79.644444 79.644444-42.666667 0-79.644444-36.977778-79.644444-79.644444C278.755556 381.155556 315.733333 347.022222 358.4 347.022222L358.4 347.022222zM358.4 349.866667" p-id="1831"></path><path d="M358.4 554.666667c82.488889 0 156.444444 73.955556 156.444444 156.444444l45.511111 0c0-110.933333-91.022222-201.955556-201.955556-201.955556-110.933333 0-201.955556 91.022222-201.955556 201.955556l45.511111 0C201.955556 628.622222 275.911111 554.666667 358.4 554.666667L358.4 554.666667zM358.4 554.666667" p-id="1832"></path><path d="M514.844444 711.111111c0 5.688889 2.844444 11.377778 5.688889 17.066667 2.844444 2.844444 11.377778 5.688889 17.066667 5.688889 5.688889 0 11.377778-2.844444 17.066667-5.688889 2.844444-2.844444 5.688889-8.533333 5.688889-17.066667s-2.844444-11.377778-5.688889-17.066667c-2.844444-2.844444-11.377778-5.688889-17.066667-5.688889-5.688889 0-11.377778 2.844444-17.066667 5.688889C517.688889 699.733333 514.844444 705.422222 514.844444 711.111111L514.844444 711.111111zM514.844444 711.111111" p-id="1833"></path><path d="M156.444444 708.266667c0 5.688889 2.844444 11.377778 5.688889 17.066667 2.844444 2.844444 8.533333 5.688889 17.066667 5.688889 5.688889 0 11.377778-2.844444 17.066667-5.688889 2.844444-2.844444 5.688889-8.533333 5.688889-17.066667S199.111111 696.888889 196.266667 694.044444c-2.844444-2.844444-8.533333-5.688889-17.066667-5.688889-5.688889 0-11.377778 2.844444-17.066667 5.688889C159.288889 696.888889 156.444444 702.577778 156.444444 708.266667L156.444444 708.266667zM156.444444 708.266667" p-id="1834"></path><path d="M1024 696.888889c0-11.377778-11.377778-22.755556-22.755556-22.755556l0 0c-5.688889 0-11.377778 2.844444-14.222222 5.688889l-142.222222 142.222222-56.888889-56.888889c-2.844444-2.844444-8.533333-5.688889-17.066667-5.688889l0 0c-11.377778 0-22.755556 11.377778-22.755556 22.755556 0 5.688889 2.844444 11.377778 5.688889 17.066667l56.888889 56.888889 0 0c2.844444 2.844444 14.222222 14.222222 22.755556 17.066667 0 0 0 0 2.844444 0 0 0 2.844444 0 2.844444 0l0 0c2.844444 0 2.844444 0 5.688889 0l0 0c8.533333 0 17.066667-8.533333 17.066667-8.533333l150.755556-150.755556c0 0 0 0 0 0l0 0 0 0C1021.155556 708.266667 1024 702.577778 1024 696.888889z" p-id="1835"></path></svg>