<svg t="1632042231155" class="icon" viewBox="0 0 1024 1024" version="1.1" xmlns="http://www.w3.org/2000/svg" p-id="3382" width="200" height="200"><path d="M358.4 0C158.72 0 0 158.72 0 358.4 0 558.08 158.72 716.8 358.4 716.8 558.08 716.8 716.8 558.08 716.8 358.4 716.8 158.72 558.08 0 358.4 0L358.4 0ZM281.6 409.6C209.92 409.6 153.6 353.28 153.6 281.6 153.6 209.92 209.92 153.6 281.6 153.6 353.28 153.6 409.6 209.92 409.6 281.6 409.6 353.28 353.28 409.6 281.6 409.6L281.6 409.6Z" p-id="3383"></path><path d="M665.6 460.8 460.8 665.6 563.2 768 665.6 768 665.6 870.4 768 870.4 768 972.8 803.84 1008.64C814.08 1018.88 824.32 1024 839.68 1024L972.8 1024C1003.52 1024 1024 1003.52 1024 972.8L1024 839.68C1024 824.32 1018.88 814.08 1008.64 803.84L665.6 460.8 665.6 460.8Z" p-id="3384"></path></svg>