<?xml version="1.0" standalone="no"?><!DOCTYPE svg PUBLIC "-//W3C//DTD SVG 1.1//EN" "http://www.w3.org/Graphics/SVG/1.1/DTD/svg11.dtd"><svg t="1614943738679" class="icon" viewBox="0 0 1152 1024" version="1.1" xmlns="http://www.w3.org/2000/svg" p-id="1680" xmlns:xlink="http://www.w3.org/1999/xlink" width="225" height="200"><defs><style type="text/css"></style></defs><path d="M352 185.6h704c38.4 0 64-25.6 64-64s-25.6-64-64-64h-704c-38.4 0-64 25.6-64 64s25.6 64 64 64z" p-id="1681"></path><path d="M96 121.6m-64 0a64 64 0 1 0 128 0 64 64 0 1 0-128 0Z" p-id="1682"></path><path d="M1056 441.6h-704c-38.4 0-64 25.6-64 64s25.6 64 64 64h704c38.4 0 64-25.6 64-64s-25.6-64-64-64z" p-id="1683"></path><path d="M96 505.6m-64 0a64 64 0 1 0 128 0 64 64 0 1 0-128 0Z" p-id="1684"></path><path d="M1056 825.6h-704c-38.4 0-64 25.6-64 64s25.6 64 64 64h704c38.4 0 64-25.6 64-64s-25.6-64-64-64z" p-id="1685"></path><path d="M96 889.6m-64 0a64 64 0 1 0 128 0 64 64 0 1 0-128 0Z" p-id="1686"></path></svg>