<?xml version="1.0" standalone="no"?><!DOCTYPE svg PUBLIC "-//W3C//DTD SVG 1.1//EN" "http://www.w3.org/Graphics/SVG/1.1/DTD/svg11.dtd"><svg t="1612693355209" class="icon" viewBox="0 0 1024 1024" version="1.1" xmlns="http://www.w3.org/2000/svg" p-id="2039" xmlns:xlink="http://www.w3.org/1999/xlink" width="200" height="200"><defs><style type="text/css"></style></defs><path d="M975.3312 632.32c-35.968-138.304-113.344-244.864-234.24-317.504-10.496-6.208-21.504-11.84-32-17.472a782.336 782.336 0 0 0-393.6 0C126.0512 388.032 47.1392 525.76 33.6992 727.488a478.08 478.08 0 0 0 11.968 155.264C65.6992 963.584 135.2032 1024 218.5312 1024c196.352-0.512 392.704 0 588.992-0.512 62.976 0 111.424-29.184 146.944-81.92 17.92-26.688 26.432-57.408 30.976-89.152 10.88-74.24 8.96-147.968-10.048-220.16h-0.064z m-331.136 187.904H564.7072c-0.96 0-1.984 1.024-1.984 2.048v38.976h-0.512a50.816 50.816 0 0 1-49.472 60.928 50.56 50.56 0 0 1-50.368-50.752 52.48 52.48 0 0 1 0.96-10.24h-0.96v-38.976c0-0.96-1.088-1.92-2.048-1.92H381.9232a40.96 40.96 0 0 1 0-81.92h78.912c0.96 0 1.984-1.152 1.984-2.112v-36.864c0-1.088-1.024-2.112-1.984-2.112H381.9232a40.96 40.96 0 0 1 0-81.92h72.384c0.96 0 1.536-0.512 1.536-0.96 0.448-1.6 1.472-3.136 1.984-4.672 0.512-0.448 0.512-1.536-0.448-2.048L367.9072 517.568c-11.52-11.328-7.488-33.28 8-49.152s37.504-19.456 48.448-8.256l86.912 88.128c0.448 0.448 1.984 0.448 2.496 0l81.92-86.528c12.544-14.336 38.464-10.752 54.4 5.632 15.552 15.872 23.552 30.72 8.064 48.064l-94.912 97.92c-0.448 0.448-0.448 0.96-0.448 1.472 0 1.024 0.96 1.536 1.92 1.536h79.488c21.888 0 39.68 18.24 39.68 40.768a40.256 40.256 0 0 1-39.68 40.704H564.7072c-0.96 0-1.984 0.96-1.984 1.984v36.928c0 0.96 1.024 2.048 1.984 2.048h79.488c21.888 0 39.68 18.24 39.68 40.704a40.256 40.256 0 0 1-39.68 40.704zM284.8992 244.608a776.32 776.32 0 0 1 453.12 0c9.472-14.336 17.472-29.696 23.488-46.592 5.44-15.36 8.448-31.296 12.48-46.656 9.472-36.352 0.512-67.52-27.008-91.648C710.1152 27.52 668.1952 23.36 623.7152 42.88c-3.072 1.536-5.056 2.048-8.064-0.512A150.144 150.144 0 0 0 408.9312 40.32c-2.56 2.56-4.544 3.072-8.064 1.536a112.192 112.192 0 0 0-72.96-8.192c-47.488 10.24-86.912 51.2-79.872 108.032a241.92 241.92 0 0 0 36.928 102.976z" p-id="2040"></path></svg>