<svg t="1634033555665" class="icon" viewBox="0 0 1024 1024" version="1.1" xmlns="http://www.w3.org/2000/svg" p-id="1896" width="200" height="200"><path d="M886.784 432.64h-78.848V306.176s0-295.424-295.936-295.424-295.936 295.424-295.936 295.424v126.464H137.216c-26.624 0-48.128 21.504-48.128 48.128v494.592c0 26.624 21.504 48.128 48.128 48.128h749.056c26.624 0 48.128-21.504 48.128-48.128V481.28c0.512-26.624-20.992-48.64-47.616-48.64zM300.544 306.688c0.512-35.328 12.8-211.456 211.456-211.456s210.944 176.128 211.456 210.944v126.464H300.544V306.688z m562.688 602.624c0 26.624-21.504 48.128-48.128 48.128H209.92c-26.624 0-48.128-21.504-48.128-48.128v-352.768c0-26.624 21.504-48.128 48.128-48.128h605.184c26.624 0 48.128 21.504 48.128 48.128v352.768z" p-id="1897"></path><path d="M601.6 769.024c15.36 0 26.112 8.192 26.112 28.16 0 15.36-7.168 26.112-23.04 26.112h-62.976v40.448c0 19.456-14.336 33.792-33.792 33.792s-33.792-14.336-33.792-33.792v-40.448H413.696c-15.36 0-24.576-12.8-24.576-28.672 0-15.36 9.216-25.6 24.576-25.6h60.928v-33.792H413.696c-15.36 0-24.576-12.288-24.576-27.648 0-15.36 9.216-26.624 24.576-26.624h58.88l-61.952-61.952c-11.264-11.264-11.264-29.184 0-39.936 11.264-11.264 29.184-11.264 39.936 0l56.832 57.344 57.344-57.344c11.264-11.264 29.184-11.264 39.936 0 11.264 11.264 11.264 29.184 0 40.448l-61.44 61.44h59.904c15.36 0 24.576 10.752 24.576 26.624 0 15.36-9.216 27.648-24.576 27.648h-60.928v33.792h59.392z" p-id="1898"></path></svg>