<?xml version="1.0" standalone="no"?><!DOCTYPE svg PUBLIC "-//W3C//DTD SVG 1.1//EN" "http://www.w3.org/Graphics/SVG/1.1/DTD/svg11.dtd"><svg t="1612693220376" class="icon" viewBox="0 0 1024 1024" version="1.1" xmlns="http://www.w3.org/2000/svg" p-id="598" xmlns:xlink="http://www.w3.org/1999/xlink" width="200" height="200"><defs><style type="text/css"></style></defs><path d="M967.375111 818.378402c20.42596 0 37.041928 16.615968 37.041927 37.039927 0 20.46396-16.615968 37.109928-37.041927 37.109928H749.767536l-211.793587 126.245753c-5.957988 3.443993-12.463976 5.22599-18.937963 5.22599H190.488628c-64.873873 0-117.65377-52.751897-117.65377-117.59377v-20.071961c0-64.913873 52.779897-117.71977 117.65377-117.71977h161.699684a62.773877 62.773877 0 0 1 4.479991-5.01999L645.13974 480.773061c2.347995-2.349995 4.93799-3.789993 6.825987-4.843991l0.557999-0.309999c6.913986-5.599989 14.885971-8.549983 23.117954-8.549983h134.717737c1.191998-11.985977 1.775997-22.845955 1.775997-32.985936 0-198.539612-161.489685-360.059297-359.987297-360.059297-198.537612 0-360.059297 161.519685-360.059297 360.059297 0 71.403861 31.065939 182.799643 81.251841 238.257535 13.633973 15.34597 12.387976 38.811924-2.707994 52.377898a37.009928 37.009928 0 0 1-24.775952 9.535981 37.065928 37.065928 0 0 1-27.505946-12.259976C53.178896 650.03473 18.000965 519.940984 18.000965 434.083152 18.000965 194.72962 212.730585 0 452.084117 0 691.39765 0 886.093269 194.75962 886.093269 434.143152c0 10.20198-0.469999 20.891959-1.465997 32.987936h82.809838c20.42596 0 37.043928 16.649967 37.043928 37.107927 0 20.38996-16.617968 36.979928-37.043928 36.979928H689.243654L408.772202 816.298406c0.02-0.012-0.006 0.148-0.006 0.323999 0 0.385999 0.13 0.511999 0.191999 0.573999l6.747987 6.749987c0.2 0.188 0.897998 0.279999 1.301998-0.122l0.441999-0.413999 3.205993-2.779995 180.593648-137.689731c7.707985-5.985988 17.389966-8.615983 27.171947-7.339986 9.863981 1.283997 18.631964 6.359988 24.681951 14.293973a37.287927 37.287927 0 0 1 7.253986 27.427946 36.769928 36.769928 0 0 1-14.293972 24.503952l-178.93165 136.387734c-13.821973 12.835975-31.875938 19.897961-50.899901 19.897961-20.015961 0-38.823924-7.785985-52.961897-21.925957l-6.667986-6.667987a75.463853 75.463853 0 0 1-17.079967-26.943948H190.488628c-24.021953 0-43.565915 19.599962-43.565915 43.693915v20.071961c0 24.059953 19.543962 43.633915 43.565915 43.633915h318.221378l211.865587-126.433753c5.891988-3.405993 12.395976-5.16399 18.939963-5.16399h227.859555zM323.950367 455.203111h84.735835v-25.377951h-84.735835c-20.39196 0-36.979928-16.617968-36.979927-37.043927s16.587968-37.043928 36.979927-37.043928h28.919944l-38.877924-80.879842a36.607929 36.607929 0 0 1-1.639997-28.163945c3.255994-9.365982 9.979981-16.905967 18.939963-21.233958 18.447964-8.815983 40.621921-1.047998 49.479903 17.289966l54.299894 112.923779h14.399972l54.285894-112.907779c8.949983-18.343964 31.133939-26.123949 49.489903-17.397966 18.421964 8.895983 26.181949 31.053939 17.361967 49.419903l-38.933924 80.885842h35.77993c20.45996 0 37.107928 16.619968 37.107927 37.043928 0 20.42796-16.649967 37.043928-37.109927 37.043928h-84.677835v25.44195h84.679835c20.45996 0 37.107928 16.619968 37.107927 37.043928 0 20.42596-16.649967 37.043928-37.109927 37.043927h-84.677835v56.011891c0 20.38996-16.645967 36.975928-37.107927 36.975928-20.39196 0-36.979928-16.585968-36.979928-36.975928v-56.011891h-84.737835c-20.39196 0-36.979928-16.617968-36.979927-37.043927s16.587968-37.043928 36.979927-37.043928z" p-id="599"></path></svg>